<?xml version="1.0" encoding="iso-8859-1"?>
<!-- Generator: Adobe Illustrator 19.0.0, SVG Export Plug-In . SVG Version: 6.00 Build 0)  -->
<svg version="1.1" id="Layer_1" xmlns="http://www.w3.org/2000/svg" xmlns:xlink="http://www.w3.org/1999/xlink" x="0px" y="0px"
	 viewBox="0 0 512 512" style="enable-background:new 0 0 512 512;" xml:space="preserve">
<g>
	<g>
		<path d="M501.55,442.133h-44.641l-13.843-13.844h23.743c5.77,0,10.449-4.678,10.449-10.449c0-5.771-4.679-10.449-10.449-10.449
			h-44.64l-18.53-18.53h23.744c5.771,0,10.449-4.679,10.449-10.449c0-5.771-4.679-10.449-10.449-10.449l-44.642,0.001
			L270.778,256.001l162.418-162.42l25.988,25.988c1.982,1.981,4.649,3.06,7.388,3.06c0.784,0,1.573-0.088,2.353-0.269
			c3.511-0.811,6.356-3.375,7.528-6.783l34.979-101.73c1.298-3.776,0.33-7.962-2.493-10.786c-2.824-2.824-7.01-3.791-10.786-2.492
			l-101.73,34.979c-3.407,1.172-5.972,4.017-6.782,7.529c-0.811,3.511,0.243,7.193,2.792,9.742l25.988,25.988L256,241.223
			L93.581,78.805l25.988-25.988c2.547-2.548,3.603-6.23,2.792-9.742c-0.811-3.512-3.375-6.356-6.782-7.529L13.847,0.568
			C10.069-0.73,5.884,0.237,3.061,3.061c-2.823,2.824-3.791,7.01-2.493,10.786l34.979,101.73c1.172,3.408,4.018,5.972,7.528,6.783
			c0.781,0.181,1.569,0.269,2.353,0.269c2.739,0,5.407-1.078,7.388-3.06l25.988-25.988l162.418,162.419L129.259,367.964
			l-44.642-0.001c-5.77,0-10.449,4.678-10.449,10.449c0,5.77,4.678,10.449,10.449,10.449h23.744l-18.53,18.53H45.19
			c-5.77,0-10.449,4.678-10.449,10.449c0,5.771,4.679,10.449,10.449,10.449h23.743l-13.843,13.844H10.449
			C4.68,442.133,0,446.811,0,452.582s4.678,10.449,10.449,10.449h23.743l-6.786,6.786c-4.08,4.08-4.08,10.697,0,14.777
			c2.041,2.041,4.715,3.06,7.388,3.06s5.348-1.02,7.388-3.06l6.785-6.785v23.742c0,5.771,4.678,10.449,10.449,10.449
			c5.77,0,10.449-4.678,10.449-10.449v-44.64l13.844-13.844v23.743c0,5.771,4.679,10.449,10.449,10.449
			c5.77,0,10.449-4.678,10.449-10.449v-44.641l18.53-18.53v23.744c0,5.771,4.678,10.449,10.449,10.449
			c5.771,0,10.449-4.679,10.449-10.449l-0.001-44.641L256,270.778l111.964,111.964l-0.001,44.641c0,5.77,4.678,10.449,10.449,10.449
			c5.77,0,10.449-4.678,10.449-10.449v-23.744l18.53,18.53v44.641c0,5.771,4.679,10.449,10.449,10.449
			c5.771,0,10.449-4.678,10.449-10.449v-23.743l13.844,13.844v44.64c0,5.771,4.679,10.449,10.449,10.449
			c5.77,0,10.449-4.678,10.449-10.449v-23.742l6.785,6.785c2.041,2.041,4.715,3.06,7.388,3.06c2.674,0,5.348-1.02,7.388-3.06
			c4.08-4.08,4.08-10.697,0-14.777l-6.786-6.786h23.744c5.77,0,10.449-4.678,10.449-10.449
			C511.999,446.811,507.321,442.133,501.55,442.133z M484.712,27.29l-22.58,65.673l-14.157-14.157l9.503-9.503
			c4.08-4.08,4.08-10.697,0-14.777c-4.081-4.081-10.696-4.081-14.778,0l-9.503,9.502L419.039,49.87L484.712,27.29z M78.804,64.027
			l-9.503-9.502c-4.081-4.081-10.696-4.081-14.777,0c-4.08,4.08-4.08,10.697,0,14.777l9.503,9.503L49.87,92.961L27.29,27.289
			l65.673,22.58L78.804,64.027z"/>
	</g>
</g>
<g>
	<g>
		<path d="M298.015,401.469l-34.626-34.625c-4.081-4.08-10.696-4.08-14.778,0l-34.628,34.626c-4.08,4.08-4.08,10.697,0,14.777
			c4.081,4.081,10.696,4.081,14.778,0L256,389.008l27.238,27.237c2.041,2.041,4.715,3.06,7.388,3.06c2.675,0,5.349-1.021,7.388-3.06
			C302.096,412.165,302.096,405.549,298.015,401.469z"/>
	</g>
</g>
<g>
	<g>
		<path d="M298.014,449.231l-34.625-34.626c-4.081-4.079-10.696-4.079-14.778,0l-34.627,34.627c-4.08,4.08-4.08,10.697,0,14.778
			c4.081,4.079,10.695,4.079,14.778,0L256,436.771l27.237,27.238c2.041,2.04,4.715,3.06,7.388,3.06c2.675,0,5.348-1.021,7.388-3.06
			C302.095,459.929,302.095,453.312,298.014,449.231z"/>
	</g>
</g>
<g>
	<g>
		<path d="M414.693,149.636c-4.081-4.08-10.696-4.08-14.777,0l-3.307,3.307c-4.08,4.08-4.08,10.697,0,14.778
			c2.041,2.04,4.715,3.061,7.388,3.061c2.674,0,5.348-1.021,7.388-3.061l3.307-3.307
			C418.773,160.334,418.773,153.718,414.693,149.636z"/>
	</g>
</g>
<g>
	<g>
		<path d="M387.482,176.847c-4.081-4.081-10.696-4.081-14.777,0l-71.766,71.766c-4.08,4.08-4.08,10.697,0,14.778
			c2.041,2.041,4.715,3.06,7.388,3.06s5.348-1.02,7.388-3.06l71.766-71.766C391.563,187.544,391.563,180.928,387.482,176.847z"/>
	</g>
</g>
<g>
</g>
<g>
</g>
<g>
</g>
<g>
</g>
<g>
</g>
<g>
</g>
<g>
</g>
<g>
</g>
<g>
</g>
<g>
</g>
<g>
</g>
<g>
</g>
<g>
</g>
<g>
</g>
<g>
</g>
</svg>
